# xmcd
# Track frame offsets:
# 150
# 152
# 16130
# 31625
# 46261
# 65463
# 79258
# 97633
# 115652
# 134913
# 150440
# 169280
# 187153
# 205894
# 222128
#
# Disc length: 3186 seconds
# Revision: 0
# Processed by: cddbd v1.5.1PL0 Copyright (c) Steve Scherf et al.
# Submitted via: VisiTrax 2.9.10.228 - For more info visit www.synapsa.com
#
DISCID=b60c700f
DTITLE=Various Artist - CB60326
DYEAR=1900
DGENRE=Karaoke
TTITLE0=Urban, Keith - Days Go By
TTITLE1=Wilson, Gretchen - Here For The Party
TTITLE2=Rascal Flatts - Feels Like Today
TTITLE3=Jackson, Alan - Too Much Of A Good Thing Is A Good Thing
TTITLE4=Twain, Shania - When You Kiss Me
TTITLE5=Dean, Billy - Thank God I'm A Country Boy
TTITLE6=Strait, George - I Hate Everything
TTITLE7=Cochran, Anita - I Wanna Hear) A Cheatin' Song
TTITLE8=Chesnutt, Mark - Lord Loves The Drinkin' Man, The
TTITLE9=Walker, Clay - Jesus Was A Country Boy
TTITLE10=Coffey, Kellie - Dance With My Father
TTITLE11=Black, Clint - My Imagination
TTITLE12=Shedaisy - Come Home Soon
TTITLE13=Brooks and Dunn - That's What It's All About
TTITLE14=Restless Heart - Feel My Way To You
EXTD=
EXTT0=
EXTT1=
EXTT2=
EXTT3=
EXTT4=
EXTT5=
EXTT6=
EXTT7=
EXTT8=
EXTT9=
EXTT10=
EXTT11=
EXTT12=
EXTT13=
EXTT14=
PLAYORDER=
